<svg xmlns="http://www.w3.org/2000/svg" viewBox="0 0 100 100" preserveAspectRatio="xMidYMid" width="200" height="200" style="shape-rendering: auto; display: block; background: transparent;" xmlns:xlink="http://www.w3.org/1999/xlink"><g><g transform="rotate(0 50 50)">
  <rect fill="#fe718d" height="45" width="6" ry="22.5" rx="3" y="17.5" x="47">
    <animate repeatCount="indefinite" begin="-0.9671179883945842s" dur="1.0638297872340425s" keyTimes="0;1" values="1;0" attributeName="opacity"></animate>
  </rect>
</g><g transform="rotate(32.72727272727273 50 50)">
  <rect fill="#fe718d" height="45" width="6" ry="22.5" rx="3" y="17.5" x="47">
    <animate repeatCount="indefinite" begin="-0.8704061895551257s" dur="1.0638297872340425s" keyTimes="0;1" values="1;0" attributeName="opacity"></animate>
  </rect>
</g><g transform="rotate(65.45454545454545 50 50)">
  <rect fill="#fe718d" height="45" width="6" ry="22.5" rx="3" y="17.5" x="47">
    <animate repeatCount="indefinite" begin="-0.7736943907156674s" dur="1.0638297872340425s" keyTimes="0;1" values="1;0" attributeName="opacity"></animate>
  </rect>
</g><g transform="rotate(98.18181818181819 50 50)">
  <rect fill="#fe718d" height="45" width="6" ry="22.5" rx="3" y="17.5" x="47">
    <animate repeatCount="indefinite" begin="-0.6769825918762089s" dur="1.0638297872340425s" keyTimes="0;1" values="1;0" attributeName="opacity"></animate>
  </rect>
</g><g transform="rotate(130.9090909090909 50 50)">
  <rect fill="#fe718d" height="45" width="6" ry="22.5" rx="3" y="17.5" x="47">
    <animate repeatCount="indefinite" begin="-0.5802707930367504s" dur="1.0638297872340425s" keyTimes="0;1" values="1;0" attributeName="opacity"></animate>
  </rect>
</g><g transform="rotate(163.63636363636363 50 50)">
  <rect fill="#fe718d" height="45" width="6" ry="22.5" rx="3" y="17.5" x="47">
    <animate repeatCount="indefinite" begin="-0.4835589941972921s" dur="1.0638297872340425s" keyTimes="0;1" values="1;0" attributeName="opacity"></animate>
  </rect>
</g><g transform="rotate(196.36363636363637 50 50)">
  <rect fill="#fe718d" height="45" width="6" ry="22.5" rx="3" y="17.5" x="47">
    <animate repeatCount="indefinite" begin="-0.3868471953578337s" dur="1.0638297872340425s" keyTimes="0;1" values="1;0" attributeName="opacity"></animate>
  </rect>
</g><g transform="rotate(229.0909090909091 50 50)">
  <rect fill="#fe718d" height="45" width="6" ry="22.5" rx="3" y="17.5" x="47">
    <animate repeatCount="indefinite" begin="-0.2901353965183752s" dur="1.0638297872340425s" keyTimes="0;1" values="1;0" attributeName="opacity"></animate>
  </rect>
</g><g transform="rotate(261.8181818181818 50 50)">
  <rect fill="#fe718d" height="45" width="6" ry="22.5" rx="3" y="17.5" x="47">
    <animate repeatCount="indefinite" begin="-0.19342359767891684s" dur="1.0638297872340425s" keyTimes="0;1" values="1;0" attributeName="opacity"></animate>
  </rect>
</g><g transform="rotate(294.54545454545456 50 50)">
  <rect fill="#fe718d" height="45" width="6" ry="22.5" rx="3" y="17.5" x="47">
    <animate repeatCount="indefinite" begin="-0.09671179883945842s" dur="1.0638297872340425s" keyTimes="0;1" values="1;0" attributeName="opacity"></animate>
  </rect>
</g><g transform="rotate(327.27272727272725 50 50)">
  <rect fill="#fe718d" height="45" width="6" ry="22.5" rx="3" y="17.5" x="47">
    <animate repeatCount="indefinite" begin="0s" dur="1.0638297872340425s" keyTimes="0;1" values="1;0" attributeName="opacity"></animate>
  </rect>
</g><g></g></g><!-- [ldio] generated by https://loading.io --></svg>